<svg width="1440" height="1024" viewBox="0 0 1440 1024" fill="none" xmlns="http://www.w3.org/2000/svg">
<rect width="1440" height="1024" fill="white"/>
<g clip-path="url(#clip0)">
<rect width="1440" height="1024" fill="url(#paint0_linear)"/>
<path d="M1624.45 -296.026C1627.39 4.95503 1283.65 252.321 856.692 256.481C429.736 260.641 81.2431 20.0208 78.3103 -280.96C75.3775 -581.941 419.116 -829.307 846.071 -833.467C1273.03 -837.627 1621.52 -597.007 1624.45 -296.026Z" fill="url(#paint1_linear)"/>
<path d="M77.9323 949.942C82.3133 648.979 431.96 410.038 858.891 416.253C1285.82 422.467 1628.37 671.484 1623.98 972.448C1619.6 1273.41 1269.96 1512.35 843.026 1506.14C416.095 1499.92 73.5513 1250.91 77.9323 949.942Z" fill="url(#paint2_linear)"/>
</g>
<defs>
<linearGradient id="paint0_linear" x1="720" y1="0" x2="720" y2="1024" gradientUnits="userSpaceOnUse">
<stop stop-color="#208976"/>
<stop stop-color="#06A689"/>
<stop offset="0.0001" stop-color="#D1FBF3"/>
<stop offset="0.9999" stop-color="#06A689"/>
<stop offset="1" stop-color="#00FFC2" stop-opacity="0"/>
</linearGradient>
<linearGradient id="paint1_linear" x1="862.728" y1="-786.648" x2="873.349" y2="303.301" gradientUnits="userSpaceOnUse">
<stop stop-color="#2400FF"/>
<stop offset="1" stop-color="#2400FF" stop-opacity="0"/>
</linearGradient>
<linearGradient id="paint2_linear" x1="827.511" y1="1458.93" x2="843.376" y2="369.042" gradientUnits="userSpaceOnUse">
<stop stop-color="#2400FF"/>
<stop offset="1" stop-color="#2400FF" stop-opacity="0"/>
</linearGradient>
<clipPath id="clip0">
<rect width="1440" height="1024" fill="white"/>
</clipPath>
</defs>
</svg>
